<?xml version="1.0" encoding="utf-8"?>
<!-- Generator: Adobe Illustrator 25.2.1, SVG Export Plug-In . SVG Version: 6.00 Build 0)  -->
<svg version="1.1" id="Layer_1" xmlns="http://www.w3.org/2000/svg" xmlns:xlink="http://www.w3.org/1999/xlink" x="0px" y="0px"
	 viewBox="0 0 24 24" style="enable-background:new 0 0 24 24;" xml:space="preserve">
<style type="text/css">
	.st0{fill:#FFC72C;}
</style>
<path class="st0" d="M6.5,19c-1.2,0-2.3-0.4-3.2-1.3S2,15.8,2,14.5c0-1.2,0.4-2.2,1.2-3.1C4,10.6,5,10.1,6.1,10
	c0.2-1.5,0.9-2.7,2-3.6S10.5,5,12,5c1.7,0,3.1,0.6,4.3,1.7C17.4,7.9,18,9.3,18,11v1h0.6c1,0,1.8,0.4,2.4,1.1c0.6,0.7,1,1.5,1,2.4
	c0,1-0.3,1.8-1,2.5c-0.7,0.7-1.5,1-2.5,1h-5.4c-0.5,0-0.8-0.2-1.2-0.5c-0.3-0.3-0.5-0.7-0.5-1.2v-5.8l-2.1,2.1L8.7,13L12,9.7
	l3.3,3.3l-0.7,0.7l-2.1-2.1v5.8c0,0.2,0.1,0.3,0.2,0.4c0.1,0.1,0.3,0.2,0.4,0.2h5.4c0.7,0,1.3-0.2,1.8-0.7c0.5-0.5,0.7-1.1,0.7-1.8
	c0-0.7-0.2-1.3-0.7-1.8c-0.5-0.5-1.1-0.7-1.8-0.7H17v-2c0-1.4-0.5-2.6-1.5-3.5S13.4,6,12,6S9.4,6.5,8.5,7.5S7,9.6,7,11H6.5
	c-0.9,0-1.7,0.3-2.4,1c-0.7,0.7-1,1.5-1,2.5s0.3,1.8,1,2.5c0.7,0.7,1.5,1,2.5,1H9v1H6.5z"/>
</svg>
